<svg version="1.1"
     baseProfile="full"
     width="1600" height="600"
     xmlns="http://www.w3.org/2000/svg">

    <rect width="100%" height="100%" fill="black" />
    <rect x="1%" y="1%" width="98%" height="98%" fill="white" />

    <circle cx="674.12719867438" cy="118.26589522141" r="5" fill="red" />
    <circle cx="736.36129411368" cy="50" r="5" fill="red" />
    <circle cx="524.42246290552" cy="130.69874901504" r="5" fill="red" />
    <circle cx="508.17365568997" cy="197.89905810535" r="5" fill="red" />
    <circle cx="387.99098331323" cy="185.63184911646" r="5" fill="red" />
    <circle cx="150" cy="158.02046528977" r="5" fill="red" />
    <circle cx="254.0262912802" cy="98.972652781189" r="5" fill="red" />
    <circle cx="329.21039368631" cy="107.17517952064" r="5" fill="red" />
    <circle cx="275.97087422732" cy="176.73134544845" r="5" fill="red" />
    <circle cx="204.797014209" cy="218.13432160209" r="5" fill="red" />
    <circle cx="1018.9658193039" cy="87.973157775726" r="5" fill="red" />
    <circle cx="999.23750941158" cy="174.52166925213" r="5" fill="red" />
    <circle cx="908.98757822187" cy="207.85631482252" r="5" fill="red" />
    <circle cx="1134.8760846408" cy="148.32370930104" r="5" fill="red" />
    <circle cx="1141.5941184382" cy="220.31561555655" r="5" fill="red" />
    <circle cx="1245.9234185123" cy="222.72760921242" r="5" fill="red" />
    <circle cx="1350" cy="256.39306056693" r="5" fill="red" />
    <circle cx="1265.7378571466" cy="270.29404973117" r="5" fill="red" />
    <circle cx="1261.9410151062" cy="278.3799222529" r="5" fill="red" />
    <circle cx="1272.0023021757" cy="285.65361544604" r="5" fill="red" />
    <circle cx="1038.913051859" cy="247.85037190697" r="5" fill="red" />
    <circle cx="1044.4025239026" cy="287.61326507918" r="5" fill="red" />
    <circle cx="963.07700138011" cy="477.72513145993" r="5" fill="red" />
    <circle cx="916.24717837475" cy="500" r="5" fill="red" />
    <circle cx="905.88782353027" cy="284.60237408311" r="5" fill="red" />
    <circle cx="798.06314008616" cy="183.95313856423" r="5" fill="red" />
    <circle cx="814.78101308516" cy="245.06570195861" r="5" fill="red" />
    <circle cx="793.87334171593" cy="346.21793278509" r="5" fill="red" />
    <circle cx="690.77000370913" cy="378.39660841618" r="5" fill="red" />
    <circle cx="842.83375307998" cy="366.38112591741" r="5" fill="red" />
    <text x="684.12719867438" y="118.26589522141" font-size="20" text-anchor="start" fill="black">kyiv</text>
    <text x="746.36129411368" y="50" font-size="20" text-anchor="start" fill="black">chernigiv</text>
    <text x="534.42246290552" y="130.69874901504" font-size="20" text-anchor="start" fill="black">zhytomyr</text>
    <text x="518.17365568997" y="197.89905810535" font-size="20" text-anchor="start" fill="black">vinnycya</text>
    <text x="397.99098331323" y="185.63184911646" font-size="20" text-anchor="start" fill="black">khmelnytskyi</text>
    <text x="160" y="158.02046528977" font-size="20" text-anchor="start" fill="black">lviv</text>
    <text x="264.0262912802" y="98.972652781189" font-size="20" text-anchor="start" fill="black">lutsk</text>
    <text x="339.21039368631" y="107.17517952064" font-size="20" text-anchor="start" fill="black">rivne</text>
    <text x="285.97087422732" y="176.73134544845" font-size="20" text-anchor="start" fill="black">ternopil</text>
    <text x="214.797014209" y="218.13432160209" font-size="20" text-anchor="start" fill="black">ivano-phrankivsk</text>
    <text x="1028.9658193039" y="87.973157775726" font-size="20" text-anchor="start" fill="black">sumy</text>
    <text x="1009.2375094116" y="174.52166925213" font-size="20" text-anchor="start" fill="black">poltava</text>
    <text x="918.98757822187" y="207.85631482252" font-size="20" text-anchor="start" fill="black">kremenchuk</text>
    <text x="1144.8760846408" y="148.32370930104" font-size="20" text-anchor="start" fill="black">kharkiv</text>
    <text x="1151.5941184382" y="220.31561555655" font-size="20" text-anchor="start" fill="black">lozova</text>
    <text x="1255.9234185123" y="222.72760921242" font-size="20" text-anchor="start" fill="black">slavyansk</text>
    <text x="1360" y="256.39306056693" font-size="20" text-anchor="start" fill="black">mykytivka</text>
    <text x="1275.7378571466" y="270.29404973117" font-size="20" text-anchor="start" fill="black">yasynyvata</text>
    <text x="1271.9410151062" y="278.3799222529" font-size="20" text-anchor="start" fill="black">donetsk</text>
    <text x="1282.0023021757" y="285.65361544604" font-size="20" text-anchor="start" fill="black">laryne</text>
    <text x="1048.913051859" y="247.85037190697" font-size="20" text-anchor="start" fill="black">dnipro</text>
    <text x="1054.4025239026" y="287.61326507918" font-size="20" text-anchor="start" fill="black">zaporizzhya</text>
    <text x="973.07700138011" y="477.72513145993" font-size="20" text-anchor="start" fill="black">simpheropol</text>
    <text x="926.24717837475" y="500" font-size="20" text-anchor="start" fill="black">sevastopol</text>
    <text x="915.88782353027" y="284.60237408311" font-size="20" text-anchor="start" fill="black">kryvyi_rig</text>
    <text x="808.06314008616" y="183.95313856423" font-size="20" text-anchor="start" fill="black">cherkasy</text>
    <text x="824.78101308516" y="245.06570195861" font-size="20" text-anchor="start" fill="black">kropyvnytskyi</text>
    <text x="803.87334171593" y="346.21793278509" font-size="20" text-anchor="start" fill="black">mykolaiv</text>
    <text x="700.77000370913" y="378.39660841618" font-size="20" text-anchor="start" fill="black">odesa</text>
    <text x="852.83375307998" y="366.38112591741" font-size="20" text-anchor="start" fill="black">kherson</text>



</svg>